<svg xmlns="http://www.w3.org/2000/svg" xmlns:xlink="http://www.w3.org/1999/xlink" fill="none" version="1.1" width="1107" height="956" viewBox="1249 861 1107 956"><defs><clipPath id="master_svg0_179_3036"><rect x="1701" y="1284" width="385" height="385" rx="0"/></clipPath><clipPath id="master_svg1_179_3044"><rect x="1775" y="1302" width="52" height="52" rx="0"/></clipPath><clipPath id="master_svg2_179_3052"><rect x="1530" y="1475" width="210" height="210" rx="0"/></clipPath><clipPath id="master_svg3_179_3025"><rect x="1779" y="1476" width="210" height="210" rx="0"/></clipPath><clipPath id="master_svg4_179_3033"><rect x="2023" y="1475" width="210" height="210" rx="0"/></clipPath><clipPath id="master_svg5_179_3029"><rect x="1809" y="1180" width="52" height="52" rx="0"/></clipPath><clipPath id="master_svg6_179_3020"><rect x="1706" y="1180" width="52" height="52" rx="0"/></clipPath><clipPath id="master_svg7_179_3031"><rect x="1603" y="1180" width="52" height="52" rx="0"/></clipPath><clipPath id="master_svg8_179_3056"><rect x="1500" y="1180" width="52" height="52" rx="0"/></clipPath><clipPath id="master_svg9_179_3027"><rect x="1397" y="1178" width="52" height="52" rx="0"/></clipPath><clipPath id="master_svga_179_3022"><rect x="1285" y="1178" width="52" height="52" rx="0"/></clipPath><clipPath id="master_svgb_179_3012"><rect x="1912" y="1180" width="52" height="52" rx="0"/></clipPath><clipPath id="master_svgc_179_3010"><rect x="1858" y="1298" width="52" height="52" rx="0"/></clipPath><clipPath id="master_svgd_179_3054"><rect x="2116" y="1298" width="52" height="52" rx="0"/></clipPath></defs><g><rect x="0" y="0" width="3104" height="2507" rx="0" fill="#FFFFFF" fill-opacity="0"/><g><path d="M2253.5,1082.5L1285,1082.5L1285,1077.5L2253.5,1077.5L2253.5,1082.5Z" fill-rule="evenodd" fill="#3D3D3D" fill-opacity="1"/></g><g><path d="M2258.5,1056.5L1290,1056.5L1290,1051.5L2258.5,1051.5L2258.5,1056.5Z" fill-rule="evenodd" fill="#3D3D3D" fill-opacity="1"/></g><g><path d="M1810.034,1172.5267L1810.034,1185.96L1810.028,1185.96C1804.5929999999998,1184.638,1800.309,1179.8605,1800.309,1174.5329L1800.309,1152.9687C1800.134,1144.2763,1808.017,1136.8325,1816.7060000000001,1137.0177L1825.3519999999999,1137.0177L1825.3519999999999,1126.2514C1821.722,1125.5054,1819.4389999999999,1121.6275,1819.917,1117.9664L1821.5520000000001,1106.4648C1821.562,1106.3696,1821.594,1106.2796,1821.616,1106.195L1821.616,1082.85308C1821.683,1081.25829,1823,1080,1824.601,1080C1826.203,1080,1827.52,1081.25829,1827.587,1082.85308L1827.587,1103.9095L1839.482,1103.9095L1839.482,1082.85308C1839.55,1081.25829,1840.866,1080,1842.4679999999998,1080C1844.069,1080,1845.386,1081.25829,1845.454,1082.85308L1845.454,1106.8827C1845.453,1106.9729,1845.4479999999999,1107.063,1845.438,1107.1526C1845.4589999999998,1107.3271,1847.1570000000002,1117.9241,1847.1680000000001,1118.0881C1847.587,1121.7174,1845.3049999999998,1125.5107,1841.717,1126.2514L1841.717,1137.0177L1850.353,1137.0177C1859.387,1137.0177,1866.739,1144.1758,1866.739,1152.9687L1866.739,1174.5329C1866.739,1179.8605,1862.46,1184.638,1857.025,1185.96L1857.025,1172.5267C1857.025,1174.1668,1855.682,1175.5,1854.037,1175.5L1813.022,1175.5C1811.371,1175.5,1810.034,1174.1668,1810.034,1172.5267ZM1826.653,1120.4371L1840.411,1120.4371C1841.0430000000001,1120.2202,1841.228,1119.6012,1841.228,1118.7441L1839.8220000000001,1109.856L1827.0929999999998,1109.856L1825.835,1118.7336C1825.83,1119.5906,1826.016,1120.2202,1826.653,1120.4371ZM1835.745,1126.389L1831.318,1126.389L1831.318,1137.023L1835.745,1137.023L1835.745,1126.389ZM1816.711,1142.9695C1813.914,1142.9695,1811.281,1144.0224,1809.306,1145.9322C1806.095,1148.8220000000001,1806.1889999999999,1152.836,1806.281,1156.7541C1806.2849999999999,1156.9032,1806.288,1157.0523,1806.2910000000002,1157.2011L1810.4850000000001,1157.2011C1811.759,1153.0322,1815.6599999999999,1149.9954,1820.251,1149.9954L1846.812,1149.9954C1851.301,1150.0024,1855.261,1152.9242,1856.579,1157.2011L1860.772,1157.2011L1860.772,1152.9687C1860.772,1147.4559,1856.101,1142.9695,1850.353,1142.9695L1816.711,1142.9695ZM1816.005,1165.1739L1851.054,1165.1739C1851.033,1164.5502,1851.05,1163.886,1851.068,1163.2109C1851.155,1159.8718,1851.249,1156.2641,1846.807,1155.9472L1820.251,1155.9472C1815.812,1156.2598,1815.905,1159.8771,1815.991,1163.2166C1816.008,1163.8901,1816.0259999999998,1164.5524,1816.005,1165.1739ZM1283.93995,1235.279L1295.2459,1235.279C1291.817,1241.352,1296.3181,1249.521,1303.2715,1249.907C1300.384,1260.494,1308.8555,1271.419,1319.8854,1271.2649999999999C1331.0215,1271.424,1339.5143,1260.261,1336.4144000000001,1249.627C1343.129,1249.108,1347.5187,1241.273,1344.3658,1235.284L1376.6381,1235.284C1373.1986,1241.352,1377.6997000000001,1249.526,1384.653,1249.907C1381.771,1260.494,1390.237,1271.419,1401.267,1271.2649999999999C1412.408,1271.424,1420.906,1260.261,1417.801,1249.627C1424.516,1249.108,1428.906,1241.273,1425.747,1235.284L1458.163,1235.284C1455.005,1241.273,1459.4,1249.103,1466.109,1249.622C1463.009,1260.261,1471.507,1271.429,1482.649,1271.26C1493.79,1271.429,1502.288,1260.261,1499.183,1249.622C1505.897,1249.108,1510.287,1241.273,1507.129,1235.284L1518.8600000000001,1235.284C1519.1970000000001,1235.27,1519.519,1235.2,1519.818,1235.085C1520.141,1235.203,1520.507,1235.272,1520.915,1235.279L1532.221,1235.279C1528.792,1241.352,1533.2930000000001,1249.521,1540.246,1249.907C1537.359,1260.494,1545.83,1271.419,1556.8600000000001,1271.2649999999999C1567.996,1271.424,1576.489,1260.261,1573.3890000000001,1249.627C1580.104,1249.108,1584.493,1241.273,1581.34,1235.284L1613.613,1235.284C1610.173,1241.352,1614.674,1249.526,1621.628,1249.907C1618.746,1260.494,1627.212,1271.419,1638.242,1271.2649999999999C1649.383,1271.424,1657.8809999999999,1260.261,1654.776,1249.627C1661.491,1249.108,1665.88,1241.273,1662.722,1235.284L1695.138,1235.284C1691.979,1241.273,1696.374,1249.103,1703.084,1249.622C1699.984,1260.261,1708.482,1271.429,1719.623,1271.26C1730.7649999999999,1271.429,1739.263,1260.261,1736.158,1249.622C1742.872,1249.108,1747.262,1241.273,1744.104,1235.284L1755.834,1235.284C1755.865,1235.283,1755.896,1235.281,1755.926,1235.279L1766.455,1235.279C1763.026,1241.352,1767.528,1249.521,1774.481,1249.907C1771.593,1260.494,1780.065,1271.419,1791.095,1271.2649999999999C1802.231,1271.424,1810.7240000000002,1260.261,1807.624,1249.627C1814.338,1249.108,1818.728,1241.273,1815.575,1235.284L1847.848,1235.284C1844.408,1241.352,1848.909,1249.526,1855.862,1249.907C1852.98,1260.494,1861.446,1271.419,1872.476,1271.2649999999999C1883.618,1271.424,1892.116,1260.261,1889.011,1249.627C1895.725,1249.108,1900.115,1241.273,1896.9569999999999,1235.284L1929.3719999999998,1235.284C1926.214,1241.273,1930.609,1249.103,1937.318,1249.622C1934.219,1260.261,1942.717,1271.429,1953.858,1271.26C1964.999,1271.429,1973.4969999999998,1260.261,1970.392,1249.622C1977.107,1249.108,1981.4969999999998,1241.273,1978.338,1235.284L1990.069,1235.284C1991.6689999999999,1235.217,1992.931,1233.904,1992.931,1232.308C1992.931,1230.712,1991.6689999999999,1229.4,1990.069,1229.3319999999999L1956.841,1229.3319999999999L1956.836,1229.327C1954.85,1229.327,1954.752,1229.3319999999999,1954.653,1229.333C1954.586,1229.334,1954.519,1229.333,1953.853,1229.327L1912.827,1229.327C1912.171,1229.3319999999999,1912.144,1229.333,1912.118,1229.3319999999999C1912.077,1229.331,1912.037,1229.327,1909.839,1229.327L1909.844,1229.327L1755.149,1229.327C1755.098,1229.328,1755.047,1229.33,1754.997,1229.3319999999999L1721.508,1229.3319999999999C1719.343,1229.3319999999999,1719.295,1229.338,1719.247,1229.339C1719.229,1229.339,1719.211,1229.339,1719.093,1229.338C1718.9940000000001,1229.337,1718.825,1229.335,1718.525,1229.3319999999999L1677.5,1229.3319999999999C1676.944,1229.336,1676.867,1229.338,1676.858,1229.338C1676.858,1229.336,1676.759,1229.3319999999999,1674.512,1229.3319999999999L1675.6100000000001,1229.327L1520.915,1229.327C1520.5,1229.333,1520.13,1229.404,1519.8029999999999,1229.526C1519.509,1229.414,1519.191,1229.346,1518.8600000000001,1229.3319999999999L1485.632,1229.3319999999999C1486.177,1229.3319999999999,1486.4,1229.333,1486.4,1229.333C1486.4,1229.335,1483.908,1229.338,1482.643,1229.327L1441.618,1229.327C1441.151,1229.33,1440.093,1229.3319999999999,1439,1229.3319999999999L1438.994,1229.3319999999999L1438.635,1229.327L1283.93995,1229.327C1280.033288,1229.385,1280.006764,1235.21,1283.93995,1235.279ZM1488.238,1238.0140000000001C1484.6109999999999,1236.766,1480.669,1236.76,1477.038,1237.998C1476.877,1237.054,1476.58,1236.1390000000001,1476.157,1235.279L1489.119,1235.279C1488.694,1236.125,1488.397,1237.046,1488.238,1238.009L1488.238,1238.0140000000001ZM1725.213,1238.0140000000001C1721.585,1236.766,1717.644,1236.76,1714.013,1237.998C1713.8519999999999,1237.054,1713.555,1236.1390000000001,1713.132,1235.279L1726.094,1235.279C1725.6689999999999,1236.125,1725.372,1237.046,1725.213,1238.009L1725.213,1238.0140000000001ZM1948.2469999999998,1237.998C1951.8780000000002,1236.76,1955.8200000000002,1236.766,1959.4470000000001,1238.0140000000001L1959.4470000000001,1238.009C1959.607,1237.046,1959.904,1236.125,1960.328,1235.279L1947.366,1235.279C1947.79,1236.1390000000001,1948.086,1237.054,1948.2469999999998,1237.998ZM1325.4747,1238.0140000000001C1321.7435,1236.724,1317.6791,1236.761,1313.9724,1238.12C1313.7893,1237.13,1313.4564,1236.174,1312.9851,1235.284L1326.3558,1235.284C1325.9365,1236.131,1325.634,1237.051,1325.4747,1238.0140000000001ZM1406.856,1238.0140000000001C1403.125,1236.724,1399.061,1236.761,1395.354,1238.12C1395.171,1237.13,1394.838,1236.174,1394.367,1235.284L1407.737,1235.284C1407.318,1236.131,1407.016,1237.051,1406.856,1238.0140000000001ZM1562.449,1238.0140000000001C1558.718,1236.724,1554.654,1236.761,1550.9470000000001,1238.12C1550.7640000000001,1237.13,1550.431,1236.174,1549.96,1235.284L1563.33,1235.284C1562.911,1236.131,1562.609,1237.051,1562.449,1238.0140000000001ZM1643.8310000000001,1238.0140000000001C1640.1,1236.724,1636.035,1236.761,1632.329,1238.12C1632.146,1237.13,1631.813,1236.174,1631.341,1235.284L1644.712,1235.284C1644.2930000000001,1236.131,1643.99,1237.051,1643.8310000000001,1238.0140000000001ZM1785.182,1238.12C1788.888,1236.761,1792.953,1236.724,1796.684,1238.0140000000001C1796.8429999999998,1237.051,1797.146,1236.131,1797.565,1235.284L1784.194,1235.284C1784.666,1236.174,1784.999,1237.13,1785.182,1238.12ZM1866.563,1238.12C1870.27,1236.761,1874.3339999999998,1236.724,1878.066,1238.0140000000001C1878.225,1237.051,1878.528,1236.131,1878.9470000000001,1235.284L1865.576,1235.284C1866.048,1236.174,1866.3809999999999,1237.13,1866.563,1238.12ZM1335.3635,1243.728C1330.0237,1243.638,1330.0183,1235.718,1335.3635,1235.628C1340.7033,1235.718,1340.698,1243.633,1335.3635,1243.723L1335.3635,1243.728ZM1416.745,1243.728C1411.405,1243.638,1411.4,1235.718,1416.745,1235.628C1422.08,1235.718,1422.08,1243.633,1416.745,1243.723L1416.745,1243.728ZM1572.338,1243.728C1566.998,1243.638,1566.993,1235.718,1572.338,1235.628C1577.6779999999999,1235.718,1577.673,1243.633,1572.338,1243.723L1572.338,1243.728ZM1653.72,1243.728C1648.38,1243.638,1648.375,1235.718,1653.72,1235.628C1659.054,1235.718,1659.054,1243.633,1653.72,1243.723L1653.72,1243.728ZM1806.5729999999999,1235.628C1801.228,1235.718,1801.233,1243.638,1806.5729999999999,1243.728L1806.5729999999999,1243.723C1811.9070000000002,1243.633,1811.913,1235.718,1806.5729999999999,1235.628ZM1887.954,1235.628C1882.609,1235.718,1882.615,1243.638,1887.954,1243.728L1887.954,1243.723C1893.289,1243.633,1893.289,1235.718,1887.954,1235.628ZM1498.121,1243.728C1492.782,1243.638,1492.782,1235.718,1498.121,1235.628C1503.461,1235.718,1503.456,1243.633,1498.121,1243.723L1498.121,1243.728ZM1735.096,1243.728C1729.7559999999999,1243.638,1729.7559999999999,1235.718,1735.096,1235.628C1740.436,1235.718,1740.43,1243.633,1735.096,1243.723L1735.096,1243.728ZM1969.3310000000001,1235.628C1963.991,1235.718,1963.991,1243.638,1969.3310000000001,1243.728L1969.3310000000001,1243.723C1974.665,1243.633,1974.671,1235.718,1969.3310000000001,1235.628ZM1463.094,1239.675C1463.19,1234.358,1471.125,1234.353,1471.221,1239.675C1471.13,1244.998,1463.19,1245.003,1463.099,1239.675L1463.094,1239.675ZM1700.069,1239.675C1700.164,1234.358,1708.1,1234.353,1708.195,1239.675C1708.105,1244.998,1700.164,1245.003,1700.074,1239.675L1700.069,1239.675ZM1942.4299999999998,1239.675C1942.3339999999998,1234.353,1934.399,1234.358,1934.304,1239.675L1934.309,1239.675C1934.399,1245.003,1942.3400000000001,1244.998,1942.4299999999998,1239.675ZM1300.0549,1239.951C1300.1504,1234.628,1308.0859,1234.623,1308.1814,1239.951C1308.0912,1245.268,1300.1504,1245.268,1300.0602,1239.951L1300.0549,1239.951ZM1381.437,1239.951C1381.532,1234.628,1389.467,1234.623,1389.563,1239.951C1389.473,1245.268,1381.532,1245.268,1381.437,1239.951ZM1537.03,1239.951C1537.125,1234.628,1545.06,1234.623,1545.156,1239.951C1545.066,1245.268,1537.125,1245.268,1537.035,1239.951L1537.03,1239.951ZM1618.411,1239.951C1618.507,1234.628,1626.442,1234.623,1626.538,1239.951C1626.4470000000001,1245.268,1618.507,1245.268,1618.411,1239.951ZM1779.391,1239.951C1779.295,1234.623,1771.3600000000001,1234.628,1771.2640000000001,1239.951L1771.27,1239.951C1771.3600000000001,1245.268,1779.301,1245.268,1779.391,1239.951ZM1860.772,1239.951C1860.6770000000001,1234.623,1852.741,1234.628,1852.646,1239.951C1852.741,1245.268,1860.682,1245.268,1860.772,1239.951ZM1319.8801,1265.313C1305.0922,1264.837,1305.1187,1243.4850000000001,1319.8801,1243.019C1334.6469,1243.4850000000001,1334.6681,1264.837,1319.8801,1265.313ZM1401.262,1265.313C1386.474,1264.837,1386.495,1243.4850000000001,1401.262,1243.019C1416.029,1243.4850000000001,1416.05,1264.837,1401.262,1265.313ZM1556.855,1265.313C1542.067,1264.837,1542.093,1243.4850000000001,1556.855,1243.019C1571.622,1243.4850000000001,1571.643,1264.837,1556.855,1265.313ZM1638.2359999999999,1265.313C1623.4479999999999,1264.837,1623.47,1243.4850000000001,1638.2359999999999,1243.019C1653.003,1243.4850000000001,1653.024,1264.837,1638.2359999999999,1265.313ZM1791.09,1243.019C1776.328,1243.4850000000001,1776.3020000000001,1264.837,1791.09,1265.313C1805.877,1264.837,1805.856,1243.4850000000001,1791.09,1243.019ZM1872.471,1243.019C1857.704,1243.4850000000001,1857.683,1264.837,1872.471,1265.313C1887.259,1264.837,1887.238,1243.4850000000001,1872.471,1243.019ZM1482.643,1265.313C1467.855,1264.837,1467.887,1243.463,1482.643,1243.019C1497.405,1243.4850000000001,1497.431,1264.837,1482.643,1265.313ZM1719.618,1265.313C1704.83,1264.837,1704.862,1243.463,1719.618,1243.019C1734.379,1243.4850000000001,1734.406,1264.837,1719.618,1265.313ZM1953.853,1243.019C1939.097,1243.463,1939.065,1264.837,1953.853,1265.313C1968.641,1264.837,1968.614,1243.4850000000001,1953.853,1243.019ZM1319.8801,1250.198C1314.6571,1250.2930000000001,1314.6571,1258.039,1319.8801,1258.134C1325.1032,1258.039,1325.1032,1250.2930000000001,1319.8801,1250.198ZM1401.262,1250.198C1396.039,1250.2930000000001,1396.039,1258.039,1401.262,1258.134C1406.485,1258.039,1406.485,1250.2930000000001,1401.262,1250.198ZM1482.643,1250.198C1477.42,1250.2930000000001,1477.42,1258.039,1482.643,1258.134C1487.866,1258.039,1487.866,1250.2930000000001,1482.643,1250.198ZM1556.855,1250.198C1551.632,1250.2930000000001,1551.632,1258.039,1556.855,1258.134C1562.078,1258.039,1562.078,1250.2930000000001,1556.855,1250.198ZM1638.2359999999999,1250.198C1633.013,1250.2930000000001,1633.013,1258.039,1638.2359999999999,1258.134C1643.459,1258.039,1643.459,1250.2930000000001,1638.2359999999999,1250.198ZM1719.618,1250.198C1714.395,1250.2930000000001,1714.395,1258.039,1719.618,1258.134C1724.841,1258.039,1724.841,1250.2930000000001,1719.618,1250.198ZM1791.09,1258.134C1785.866,1258.039,1785.866,1250.2930000000001,1791.09,1250.198C1796.313,1250.2930000000001,1796.313,1258.039,1791.09,1258.134ZM1872.471,1258.134C1867.248,1258.039,1867.248,1250.2930000000001,1872.471,1250.198C1877.694,1250.2930000000001,1877.694,1258.039,1872.471,1258.134ZM1953.853,1258.134C1948.63,1258.039,1948.63,1250.2930000000001,1953.853,1250.198C1959.076,1250.2930000000001,1959.076,1258.039,1953.853,1258.134ZM1283.93995,1279L1518.854,1279C1519.232,1278.996,1519.574,1278.936,1519.88,1278.83C1520.187,1278.933,1520.531,1278.993,1520.915,1279L1990.0639999999999,1279C1993.885,1278.963,1994.071,1273.128,1990.0639999999999,1273.048L1520.915,1273.048C1520.537,1273.052,1520.196,1273.113,1519.8899999999999,1273.219C1519.583,1273.116,1519.238,1273.056,1518.854,1273.048L1283.93995,1273.048C1280.118232,1273.09,1279.93775,1278.926,1283.93995,1279Z" fill-rule="evenodd" fill="#FFFFFF" fill-opacity="1" style="mix-blend-mode:passthrough"/></g><g transform="matrix(-1,0,0,1,3402,0)" clip-path="url(#master_svg0_179_3036)"><g><path d="M2060.149609375,1608.49931640625L1979.849599375,1608.49931640625C1976.549589375,1608.49931640625,1974.349609375,1606.29931640625,1974.349609375,1602.99931640625L1974.349609375,1578.79932640625C1974.349609375,1575.49931640625,1976.549609375,1573.29933935405,1979.849599375,1573.29931640625L2060.149609375,1573.29931640625C2063.449609375,1573.29931640625,2065.649609375,1575.49931640625,2065.649609375,1578.79932640625L2065.649609375,1602.99931640625C2065.649609375,1606.29931640625,2063.449609375,1608.49931640625,2060.149609375,1608.49931640625ZM1985.349609375,1597.49931640625L2054.649609375,1597.49931640625L2054.649609375,1584.29931640625L1985.349609375,1584.29931640625L1985.349609375,1597.49931640625Z" fill="#FFFFFF" fill-opacity="1" style="mix-blend-mode:passthrough"/></g><g><path d="M2043.0999267578125,1584.2997465820313L1998.0001267578125,1584.2997465820313C1996.3501267578124,1584.2997465820313,1995.2502267578125,1583.7497465820313,1994.1502267578126,1582.6497465820312C1993.0502267578124,1581.5497465820313,1992.5002267578125,1579.8997465820312,1992.5002267578125,1578.7997465820313L2000.2002267578125,1409.3992465820313C2000.2002267578125,1406.0992465820314,2002.9501267578125,1403.8992465820313,2005.7001267578125,1403.8992465820313C2008.9999267578125,1403.8992465820313,2011.1999267578126,1406.6492465820313,2011.1999267578126,1409.3992465820313L2003.5001267578125,1573.2987465820313L2037.0499267578125,1573.2987465820313L2029.3499267578125,1409.3992465820313C2029.3499267578125,1406.0992465820314,2031.5499267578125,1403.8992465820313,2034.8499267578125,1403.8992465820313C2038.1499267578124,1403.8992465820313,2040.3499267578125,1406.0992465820314,2040.3499267578125,1409.3992465820313L2048.0499267578125,1578.7997465820313C2048.0499267578125,1580.4497465820314,2047.4999267578125,1581.5497465820313,2046.3999267578124,1582.6497465820312C2046.3999267578124,1583.7497465820313,2044.7499267578125,1584.2997465820313,2043.0999267578125,1584.2997465820313ZM2015.5999267578125,1367.0492465820312C2015.0499267578125,1367.0492465820312,2013.9499267578126,1367.0492465820312,2013.3999267578124,1366.4992465820312L1916.6001267578124,1324.6992465820313C1913.8501767578125,1323.5992665820313,1912.7501767578126,1320.2992665820314,1913.8501767578125,1317.5492665820314C1914.9501767578124,1314.7992685820313,1918.2502267578125,1313.6992695820313,1921.0002267578125,1314.7992685820313L2017.2499267578125,1357.1492465820313C2019.9999267578125,1358.2492465820312,2021.0999267578125,1361.5492465820312,2019.9999267578125,1364.2992465820312C2019.4499267578126,1365.9492465820313,2017.2499267578125,1367.0492465820312,2015.5999267578125,1367.0492465820312ZM1994.1502267578126,1393.9992465820312C1993.0502267578124,1393.9992465820312,1992.5002267578125,1393.9992465820312,1991.4002267578126,1393.4492465820313L1908.9001767578125,1349.4492465820313C1906.1501817578126,1347.7992465820312,1905.0501797578124,1344.4992465820312,1906.7001717578125,1341.7492465820312C1908.3501667578125,1338.9992465820312,1911.6501667578125,1337.8992465820313,1914.4001667578125,1339.5492465820312L1996.9002267578126,1383.5492465820312C1999.6501267578126,1385.1992465820313,2000.7501267578125,1388.4992465820312,1999.1002267578124,1391.2492465820312C1998.0001267578125,1393.4492465820313,1996.3501267578124,1393.9992465820312,1994.1502267578126,1393.9992465820312Z" fill="#FFFFFF" fill-opacity="1" style="mix-blend-mode:passthrough"/></g><g><path d="M2020.54921875,1419.3001831054687C2002.94921875,1419.3001831054687,1988.64921875,1405.0001831054688,1988.64921875,1387.4001831054688C1988.64921875,1369.8001831054687,2002.94921875,1355.5001831054688,2020.54921875,1355.5001831054688C2038.14921875,1355.5001831054688,2052.44921875,1369.8001831054687,2052.44921875,1387.4001831054688C2052.44921875,1405.0001831054688,2038.14921875,1419.3001831054687,2020.54921875,1419.3001831054687ZM2020.54921875,1367.0501831054687C2008.99921875,1367.0501831054687,1999.64921875,1376.4001831054688,1999.64921875,1387.9501831054688C1999.64921875,1399.5001831054688,2008.99921875,1408.8501831054687,2020.54921875,1408.8501831054687C2032.09921875,1408.8501831054687,2041.44921875,1399.5001831054688,2041.44921875,1387.9501831054688C2041.44921875,1376.4001831054688,2032.09921875,1367.0501831054687,2020.54921875,1367.0501831054687ZM1894.04921875,1357.1501831054688C1876.99921875,1357.1501831054688,1862.69921875,1343.4001831054688,1862.69921875,1325.8001831054687C1863.24923175,1308.7501831054688,1876.99921875,1295.0001831054688,1894.04921875,1295.0001831054688C1911.09921875,1295.0001831054688,1925.39921875,1308.7501831054688,1925.39921875,1326.3501831054687C1925.39921875,1343.4001831054688,1911.64921875,1357.1501831054688,1894.04921875,1357.1501831054688ZM1894.04921875,1306.0001831054688C1883.04921875,1306.0001831054688,1873.69921875,1314.8001831054687,1873.69921875,1326.3501831054687C1873.69921875,1337.9001831054688,1882.49921875,1346.7001831054688,1894.04921875,1346.7001831054688C1905.04921875,1346.7001831054688,1914.39921875,1337.9001831054688,1914.39921875,1326.3501831054687C1914.39921875,1314.8001831054687,1905.59921875,1306.0001831054688,1894.04921875,1306.0001831054688Z" fill="#FFFFFF" fill-opacity="1" style="mix-blend-mode:passthrough"/></g><g><path d="M1815.40057171875,1366.5010755859375C1813.75056171875,1366.5010755859375,1812.10057171875,1365.9510755859376,1811.00057171875,1364.3010755859375C1809.35056771875,1362.1010755859375,1809.35056771875,1358.2510755859375,1812.10057171875,1356.6010755859375L1866.00061171875,1315.3510355859376C1868.20061171875,1313.7010315859375,1872.05061171875,1313.7010315859375,1873.70061171875,1316.4510355859375C1875.35061171875,1318.6510355859375,1875.35061171875,1322.5010355859374,1872.60061171875,1324.1510355859375L1818.70057171875,1365.9510755859376C1817.60057171875,1366.5010755859375,1816.50057171875,1366.5010755859375,1815.40057171875,1366.5010755859375ZM1834.65061171875,1379.7010755859376C1833.00051171875,1379.7010755859376,1831.35061171875,1379.1510755859374,1830.25061171875,1377.5010755859375C1828.60061171875,1374.7510755859375,1829.15061171875,1371.4510755859376,1831.35061171875,1369.8010755859375L1873.70061171875,1340.1010755859375C1876.45061171875,1338.4510755859376,1879.75061171875,1339.0010755859375,1881.40061171875,1341.2010755859376C1883.05061171875,1343.9510755859376,1882.50061171875,1347.2510755859375,1880.30061171875,1348.9010755859374L1837.95061171875,1378.6009755859375C1836.85061171875,1379.7010755859376,1835.75061171875,1379.7010755859376,1834.65061171875,1379.7010755859376Z" fill="#FFFFFF" fill-opacity="1" style="mix-blend-mode:passthrough"/></g><g><path d="M1820.350048828125,1393.998681640625C1809.350038828125,1393.998681640625,1800.550048828125,1385.198681640625,1800.550048828125,1374.198681640625C1800.550048828125,1363.198671640625,1809.350038828125,1354.398681640625,1820.350048828125,1354.398681640625C1831.350048828125,1354.398681640625,1840.150048828125,1363.198681640625,1840.150048828125,1374.198681640625C1840.150048828125,1385.198681640625,1831.350048828125,1393.998681640625,1820.350048828125,1393.998681640625ZM1820.350048828125,1365.948681640625C1815.400048828125,1365.948681640625,1811.550048828125,1369.798681640625,1811.550048828125,1374.748681640625C1811.550048828125,1379.698681640625,1815.400048828125,1383.548681640625,1820.350048828125,1383.548681640625C1825.300048828125,1383.548681640625,1829.150048828125,1379.698681640625,1829.150048828125,1374.748681640625C1829.150048828125,1369.798681640625,1825.300048828125,1365.948681640625,1820.350048828125,1365.948681640625Z" fill="#FFFFFF" fill-opacity="1" style="mix-blend-mode:passthrough"/></g><g><path d="M2069.49931640625,1657.999755859375L1971.04932640625,1657.999755859375C1967.74931640625,1657.999755859375,1965.54931640625,1655.799755859375,1965.54931640625,1652.499755859375L1965.54931640625,1602.999765859375C1965.54931640625,1599.699755859375,1967.74931640625,1597.499755859375,1971.04930640625,1597.499755859375L2069.49931640625,1597.499755859375C2072.79931640625,1597.499755859375,2074.99931640625,1599.699755859375,2074.99931640625,1602.999765859375L2074.99931640625,1652.499755859375C2074.99931640625,1655.249755859375,2072.24931640625,1657.999755859375,2069.49931640625,1657.999755859375ZM1976.54931640625,1646.999755859375L2063.99931640625,1646.999755859375L2063.99931640625,1608.499755859375L1976.54931640625,1608.499755859375L1976.54931640625,1646.999755859375Z" fill="#FFFFFF" fill-opacity="1" style="mix-blend-mode:passthrough"/></g><g><path d="M1820.350341796875,1409.949267578125C1817.050341796875,1409.949267578125,1814.850341796875,1407.749267578125,1814.850341796875,1404.449267578125L1814.850341796875,1388.499267578125C1814.850341796875,1385.199267578125,1817.050341796875,1382.999267578125,1820.350341796875,1382.999267578125C1823.650341796875,1382.999267578125,1825.850341796875,1385.199267578125,1825.850341796875,1388.499267578125L1825.850341796875,1404.449267578125C1825.850341796875,1407.749267578125,1823.650341796875,1409.949267578125,1820.350341796875,1409.949267578125Z" fill="#FFFFFF" fill-opacity="1" style="mix-blend-mode:passthrough"/></g><g><path d="M1842.8994140625,1430.3010986328125L1797.7994140625,1430.3010986328125C1795.5994140625,1430.3010986328125,1793.9494140625,1429.2010986328125,1792.8494160625,1427.5510986328125C1791.7494130625,1425.9010986328126,1791.7494130625,1423.7010986328125,1792.8494160625,1422.0510986328125L1804.3994140625,1402.2511086328125C1805.4994140625,1400.6010986328124,1807.1494140625,1399.5010986328125,1809.3494140625,1399.5010986328125L1830.7994140625,1399.5010986328125C1832.9994140625,1399.5010986328125,1834.6494140625,1400.6010986328124,1835.7494140625,1402.2511086328125L1847.2994140625,1422.0510986328125C1848.3994140625,1423.7010986328125,1848.3994140625,1425.9010986328126,1847.2994140625,1427.5510986328125C1846.7494140625,1429.2010986328125,1845.0994140625,1430.3010986328125,1842.8994140625,1430.3010986328125ZM1807.6994140625,1419.3010986328125L1833.5494140625,1419.3010986328125L1828.0494140625,1410.5010986328125L1812.6494140625,1410.5010986328125L1807.6994140625,1419.3010986328125Z" fill="#FFFFFF" fill-opacity="1" style="mix-blend-mode:passthrough"/></g><g><path d="M1852.2496056640625,1457.798828125C1851.6996056640626,1457.798828125,1851.1496056640626,1457.798828125,1850.5996056640624,1457.248828125C1847.8496056640624,1456.148828125,1846.1996056640626,1452.848828125,1847.2996056640625,1450.098828125L1854.4496056640626,1430.298828125L1788.4496056640626,1430.298828125L1796.6996056640626,1450.098828125C1797.7996056640625,1452.848828125,1796.6996056640626,1456.148828125,1793.3996056640624,1457.248828125C1790.6496056640624,1458.348828125,1787.3496056640624,1457.248828125,1786.2496056640625,1453.948828125L1775.2495786640625,1426.448828125C1774.6995776640624,1424.798828125,1774.6995776640624,1422.598838125,1775.7995796640625,1421.498828125C1776.8995856640624,1419.848829125,1778.5495756640626,1419.298828125,1780.1995756640624,1419.298828125L1862.1496056640626,1419.298828125C1863.7996056640625,1419.298828125,1865.4496056640626,1420.398828125,1866.5496056640625,1421.498828125C1867.6496056640626,1422.598838125,1867.6496056640626,1424.798828125,1867.0996056640624,1426.448828125L1857.7496056640625,1453.948828125C1856.6496056640626,1456.148828125,1854.4496056640626,1457.798828125,1852.2496056640625,1457.798828125Z" fill="#FFFFFF" fill-opacity="1" style="mix-blend-mode:passthrough"/></g><g transform="matrix(-1,0,0,1,3550,0)" clip-path="url(#master_svg1_179_3044)"><g><path d="M1817.72480546875,1351.8110481445312L1784.14143546875,1351.8110481445312C1782.64636546875,1351.8093481445312,1781.43478226875,1350.5977481445314,1781.43310546875,1349.1026481445313L1781.43310546875,1306.8526881445312C1781.43478458875,1305.3576181445312,1782.64636546875,1304.1460375345312,1784.14143546875,1304.1443584114313L1807.84340546875,1304.1443584114313C1808.56210546875,1304.1423832945313,1809.25170546875,1304.4280051445312,1809.75850546875,1304.9375611445312L1819.63990546875,1314.8189481445313C1820.14950546875,1315.3257481445312,1820.43510546875,1316.0153481445313,1820.43310546875,1316.7340481445312L1820.43310546875,1349.1026481445313C1820.43140546875,1350.5977481445314,1819.21980546875,1351.8093481445312,1817.72480546875,1351.8110481445312ZM1784.14143546875,1306.3110281445313C1783.84228546875,1306.3110281445313,1783.59977546875,1306.5535381445313,1783.59977546875,1306.8526881445312L1783.59977546875,1349.1026481445313C1783.59977546875,1349.4018481445312,1783.84228546875,1349.6443481445312,1784.14143546875,1349.6443481445312L1817.72480546875,1349.6443481445312C1818.02390546875,1349.6443481445312,1818.26640546875,1349.4018481445312,1818.26640546875,1349.1026481445313L1818.26640546875,1317.1443481445312L1810.14140546875,1317.1443481445312C1808.64640546875,1317.1426481445312,1807.43480546875,1315.9311481445313,1807.43310546875,1314.4360481445312L1807.43310546875,1306.3110281445313L1784.14143546875,1306.3110281445313ZM1809.59980546875,1307.8429281445312L1809.59980546875,1314.4360481445312C1809.59980546875,1314.7351481445312,1809.84230546875,1314.9776481445313,1810.14140546875,1314.9776481445313L1816.73450546875,1314.9776481445313L1809.59980546875,1307.8429281445312ZM1810.68310546875,1340.9776481445313L1791.18310546875,1340.9776481445313C1790.58479546875,1340.9776481445313,1790.09977546875,1340.4926481445314,1790.09977546875,1339.8943481445312C1790.09977546875,1339.2960481445311,1790.58479546875,1338.8110481445312,1791.18310546875,1338.8110481445312L1810.68310546875,1338.8110481445312C1811.28140546875,1338.8110481445312,1811.76640546875,1339.2960481445311,1811.76640546875,1339.8943481445312C1811.76640546875,1340.4926481445314,1811.28140546875,1340.9776481445313,1810.68310546875,1340.9776481445313ZM1810.68310546875,1330.1443481445312L1791.18310546875,1330.1443481445312C1790.58479546875,1330.1443481445312,1790.09977546875,1329.6593481445314,1790.09977546875,1329.0610481445312C1790.09977546875,1328.4627481445314,1790.58479546875,1327.9776481445313,1791.18310546875,1327.9776481445313L1810.68310546875,1327.9776481445313C1811.28140546875,1327.9776481445313,1811.76640546875,1328.4627481445314,1811.76640546875,1329.0610481445312C1811.76640546875,1329.6593481445314,1811.28140546875,1330.1443481445312,1810.68310546875,1330.1443481445312ZM1799.84980546875,1317.1443481445312L1791.18310546875,1317.1443481445312C1790.58479546875,1317.1443481445312,1790.09977546875,1316.6593481445314,1790.09977546875,1316.0610481445312C1790.09977546875,1315.4627481445314,1790.58479546875,1314.9776481445313,1791.18310546875,1314.9776481445313L1799.84980546875,1314.9776481445313C1800.44810546875,1314.9776481445313,1800.93310546875,1315.4627481445314,1800.93310546875,1316.0610481445312C1800.93310546875,1316.6593481445314,1800.44810546875,1317.1443481445312,1799.84980546875,1317.1443481445312Z" fill="#FFFFFF" fill-opacity="1" style="mix-blend-mode:passthrough"/></g></g></g><g transform="matrix(0,1,-1,0,3216.0009765625,-756.0009765625)"><line x1="1986.0009765625" y1="1227" x2="2033.0009765625" y2="1227" fill-opacity="0" stroke-opacity="1" stroke="#3D3D3D" fill="none" stroke-width="6"/></g><g clip-path="url(#master_svg2_179_3052)"><g><path d="M1710.89651171875,1553.75048828125L1698.40151171875,1510.00048828125L1571.59701171875,1510.00048828125L1559.10201171875,1553.75048828125L1617.49951171875,1553.75048828125L1617.49951171875,1562.50048828125C1617.49951171875,1572.16548828125,1625.33451171875,1580.00048828125,1634.99951171875,1580.00048828125C1644.66451171875,1580.00048828125,1652.49951171875,1572.16548828125,1652.49951171875,1562.50048828125L1652.49951171875,1553.75048828125L1710.89651171875,1553.75048828125ZM1556.24951171875,1571.25048828125L1556.24951171875,1650.00048828125L1713.74951171875,1650.00048828125L1713.74951171875,1571.25048828125L1668.89651171875,1571.25048828125C1664.89351171875,1586.69608828125,1650.95551171875,1597.48248828125,1634.99951171875,1597.48248828125C1619.04351171875,1597.48248828125,1605.10521171875,1586.69608828125,1601.10201171875,1571.25048828125L1556.24951171875,1571.25048828125ZM1711.59751171875,1492.50048984587L1731.24951171875,1561.27548828125L1731.24951171875,1667.50048828125L1538.74951171875,1667.50048828125L1538.74951171875,1561.27548828125L1558.40201171875,1492.50048828125L1711.59751171875,1492.50048984587Z" fill="#C7F5F5" fill-opacity="1" style="mix-blend-mode:passthrough"/></g></g><g clip-path="url(#master_svg3_179_3025)"><g><path d="M1959.89651171875,1554.75048828125L1947.40151171875,1511.00048828125L1820.59701171875,1511.00048828125L1808.10201171875,1554.75048828125L1866.49951171875,1554.75048828125L1866.49951171875,1563.50048828125C1866.49951171875,1573.16548828125,1874.33451171875,1581.00048828125,1883.99951171875,1581.00048828125C1893.66451171875,1581.00048828125,1901.49951171875,1573.16548828125,1901.49951171875,1563.50048828125L1901.49951171875,1554.75048828125L1959.89651171875,1554.75048828125ZM1805.24951171875,1572.25048828125L1805.24951171875,1651.00048828125L1962.74951171875,1651.00048828125L1962.74951171875,1572.25048828125L1917.89651171875,1572.25048828125C1913.89351171875,1587.69608828125,1899.95551171875,1598.48248828125,1883.99951171875,1598.48248828125C1868.04351171875,1598.48248828125,1854.10521171875,1587.69608828125,1850.10201171875,1572.25048828125L1805.24951171875,1572.25048828125ZM1960.59751171875,1493.50048984587L1980.24951171875,1562.27548828125L1980.24951171875,1668.50048828125L1787.74951171875,1668.50048828125L1787.74951171875,1562.27548828125L1807.40201171875,1493.50048828125L1960.59751171875,1493.50048984587Z" fill="#C7F5F5" fill-opacity="1" style="mix-blend-mode:passthrough"/></g></g><g clip-path="url(#master_svg4_179_3033)"><g><path d="M2203.89651171875,1553.75048828125L2191.40151171875,1510.00048828125L2064.59701171875,1510.00048828125L2052.10201171875,1553.75048828125L2110.49951171875,1553.75048828125L2110.49951171875,1562.50048828125C2110.49951171875,1572.16548828125,2118.33451171875,1580.00048828125,2127.99951171875,1580.00048828125C2137.66451171875,1580.00048828125,2145.49951171875,1572.16548828125,2145.49951171875,1562.50048828125L2145.49951171875,1553.75048828125L2203.89651171875,1553.75048828125ZM2049.24951171875,1571.25048828125L2049.24951171875,1650.00048828125L2206.74951171875,1650.00048828125L2206.74951171875,1571.25048828125L2161.89651171875,1571.25048828125C2157.8935117187502,1586.69608828125,2143.95551171875,1597.48248828125,2127.99951171875,1597.48248828125C2112.04351171875,1597.48248828125,2098.10521171875,1586.69608828125,2094.10201171875,1571.25048828125L2049.24951171875,1571.25048828125ZM2204.59751171875,1492.50048984587L2224.24951171875,1561.27548828125L2224.24951171875,1667.50048828125L2031.74951171875,1667.50048828125L2031.74951171875,1561.27548828125L2051.40201171875,1492.50048828125L2204.59751171875,1492.50048984587Z" fill="#C7F5F5" fill-opacity="1" style="mix-blend-mode:passthrough"/></g></g><g clip-path="url(#master_svg5_179_3029)"><g><path d="M1851.72480546875,1229.8110481445312L1818.14143546875,1229.8110481445312C1816.64636546875,1229.8093481445312,1815.43478226875,1228.5977481445314,1815.43310546875,1227.1026481445313L1815.43310546875,1184.8526881445312C1815.43478458875,1183.3576181445312,1816.64636546875,1182.1460375345312,1818.14143546875,1182.1443584114313L1841.84340546875,1182.1443584114313C1842.56210546875,1182.1423832945313,1843.25170546875,1182.4280051445312,1843.75850546875,1182.9375611445312L1853.63990546875,1192.8189481445313C1854.14950546875,1193.3257481445312,1854.43510546875,1194.0153481445313,1854.43310546875,1194.7340481445312L1854.43310546875,1227.1026481445313C1854.43140546875,1228.5977481445314,1853.21980546875,1229.8093481445312,1851.72480546875,1229.8110481445312ZM1818.14143546875,1184.3110281445313C1817.84228546875,1184.3110281445313,1817.59977546875,1184.5535381445313,1817.59977546875,1184.8526881445312L1817.59977546875,1227.1026481445313C1817.59977546875,1227.4018481445312,1817.84228546875,1227.6443481445312,1818.14143546875,1227.6443481445312L1851.72480546875,1227.6443481445312C1852.02390546875,1227.6443481445312,1852.26640546875,1227.4018481445312,1852.26640546875,1227.1026481445313L1852.26640546875,1195.1443481445312L1844.14140546875,1195.1443481445312C1842.64640546875,1195.1426481445312,1841.43480546875,1193.9311481445313,1841.43310546875,1192.4360481445312L1841.43310546875,1184.3110281445313L1818.14143546875,1184.3110281445313ZM1843.59980546875,1185.8429281445312L1843.59980546875,1192.4360481445312C1843.59980546875,1192.7351481445312,1843.84230546875,1192.9776481445313,1844.14140546875,1192.9776481445313L1850.73450546875,1192.9776481445313L1843.59980546875,1185.8429281445312ZM1844.68310546875,1218.9776481445313L1825.18310546875,1218.9776481445313C1824.58479546875,1218.9776481445313,1824.09977546875,1218.4926481445314,1824.09977546875,1217.8943481445312C1824.09977546875,1217.2960481445311,1824.58479546875,1216.8110481445312,1825.18310546875,1216.8110481445312L1844.68310546875,1216.8110481445312C1845.28140546875,1216.8110481445312,1845.76640546875,1217.2960481445311,1845.76640546875,1217.8943481445312C1845.76640546875,1218.4926481445314,1845.28140546875,1218.9776481445313,1844.68310546875,1218.9776481445313ZM1844.68310546875,1208.1443481445312L1825.18310546875,1208.1443481445312C1824.58479546875,1208.1443481445312,1824.09977546875,1207.6593481445314,1824.09977546875,1207.0610481445312C1824.09977546875,1206.4627481445314,1824.58479546875,1205.9776481445313,1825.18310546875,1205.9776481445313L1844.68310546875,1205.9776481445313C1845.28140546875,1205.9776481445313,1845.76640546875,1206.4627481445314,1845.76640546875,1207.0610481445312C1845.76640546875,1207.6593481445314,1845.28140546875,1208.1443481445312,1844.68310546875,1208.1443481445312ZM1833.84980546875,1195.1443481445312L1825.18310546875,1195.1443481445312C1824.58479546875,1195.1443481445312,1824.09977546875,1194.6593481445314,1824.09977546875,1194.0610481445312C1824.09977546875,1193.4627481445314,1824.58479546875,1192.9776481445313,1825.18310546875,1192.9776481445313L1833.84980546875,1192.9776481445313C1834.44810546875,1192.9776481445313,1834.93310546875,1193.4627481445314,1834.93310546875,1194.0610481445312C1834.93310546875,1194.6593481445314,1834.44810546875,1195.1443481445312,1833.84980546875,1195.1443481445312Z" fill="#FFFFFF" fill-opacity="1" style="mix-blend-mode:passthrough"/></g></g><g clip-path="url(#master_svg6_179_3020)"><g><path d="M1748.72480546875,1229.8110481445312L1715.14143546875,1229.8110481445312C1713.64636546875,1229.8093481445312,1712.43478226875,1228.5977481445314,1712.43310546875,1227.1026481445313L1712.43310546875,1184.8526881445312C1712.43478458875,1183.3576181445312,1713.64636546875,1182.1460375345312,1715.14143546875,1182.1443584114313L1738.84340546875,1182.1443584114313C1739.56210546875,1182.1423832945313,1740.25170546875,1182.4280051445312,1740.75850546875,1182.9375611445312L1750.63990546875,1192.8189481445313C1751.14950546875,1193.3257481445312,1751.43510546875,1194.0153481445313,1751.43310546875,1194.7340481445312L1751.43310546875,1227.1026481445313C1751.43140546875,1228.5977481445314,1750.21980546875,1229.8093481445312,1748.72480546875,1229.8110481445312ZM1715.14143546875,1184.3110281445313C1714.84228546875,1184.3110281445313,1714.59977546875,1184.5535381445313,1714.59977546875,1184.8526881445312L1714.59977546875,1227.1026481445313C1714.59977546875,1227.4018481445312,1714.84228546875,1227.6443481445312,1715.14143546875,1227.6443481445312L1748.72480546875,1227.6443481445312C1749.02390546875,1227.6443481445312,1749.26640546875,1227.4018481445312,1749.26640546875,1227.1026481445313L1749.26640546875,1195.1443481445312L1741.14140546875,1195.1443481445312C1739.64640546875,1195.1426481445312,1738.43480546875,1193.9311481445313,1738.43310546875,1192.4360481445312L1738.43310546875,1184.3110281445313L1715.14143546875,1184.3110281445313ZM1740.59980546875,1185.8429281445312L1740.59980546875,1192.4360481445312C1740.59980546875,1192.7351481445312,1740.84230546875,1192.9776481445313,1741.14140546875,1192.9776481445313L1747.73450546875,1192.9776481445313L1740.59980546875,1185.8429281445312ZM1741.68310546875,1218.9776481445313L1722.18310546875,1218.9776481445313C1721.58479546875,1218.9776481445313,1721.09977546875,1218.4926481445314,1721.09977546875,1217.8943481445312C1721.09977546875,1217.2960481445311,1721.58479546875,1216.8110481445312,1722.18310546875,1216.8110481445312L1741.68310546875,1216.8110481445312C1742.28140546875,1216.8110481445312,1742.76640546875,1217.2960481445311,1742.76640546875,1217.8943481445312C1742.76640546875,1218.4926481445314,1742.28140546875,1218.9776481445313,1741.68310546875,1218.9776481445313ZM1741.68310546875,1208.1443481445312L1722.18310546875,1208.1443481445312C1721.58479546875,1208.1443481445312,1721.09977546875,1207.6593481445314,1721.09977546875,1207.0610481445312C1721.09977546875,1206.4627481445314,1721.58479546875,1205.9776481445313,1722.18310546875,1205.9776481445313L1741.68310546875,1205.9776481445313C1742.28140546875,1205.9776481445313,1742.76640546875,1206.4627481445314,1742.76640546875,1207.0610481445312C1742.76640546875,1207.6593481445314,1742.28140546875,1208.1443481445312,1741.68310546875,1208.1443481445312ZM1730.84980546875,1195.1443481445312L1722.18310546875,1195.1443481445312C1721.58479546875,1195.1443481445312,1721.09977546875,1194.6593481445314,1721.09977546875,1194.0610481445312C1721.09977546875,1193.4627481445314,1721.58479546875,1192.9776481445313,1722.18310546875,1192.9776481445313L1730.84980546875,1192.9776481445313C1731.44810546875,1192.9776481445313,1731.93310546875,1193.4627481445314,1731.93310546875,1194.0610481445312C1731.93310546875,1194.6593481445314,1731.44810546875,1195.1443481445312,1730.84980546875,1195.1443481445312Z" fill="#FFFFFF" fill-opacity="1" style="mix-blend-mode:passthrough"/></g></g><g clip-path="url(#master_svg7_179_3031)"><g><path d="M1645.72480546875,1229.8110481445312L1612.14143546875,1229.8110481445312C1610.64636546875,1229.8093481445312,1609.43478226875,1228.5977481445314,1609.43310546875,1227.1026481445313L1609.43310546875,1184.8526881445312C1609.43478458875,1183.3576181445312,1610.64636546875,1182.1460375345312,1612.14143546875,1182.1443584114313L1635.84340546875,1182.1443584114313C1636.56210546875,1182.1423832945313,1637.25170546875,1182.4280051445312,1637.75850546875,1182.9375611445312L1647.63990546875,1192.8189481445313C1648.14950546875,1193.3257481445312,1648.43510546875,1194.0153481445313,1648.43310546875,1194.7340481445312L1648.43310546875,1227.1026481445313C1648.43140546875,1228.5977481445314,1647.21980546875,1229.8093481445312,1645.72480546875,1229.8110481445312ZM1612.14143546875,1184.3110281445313C1611.84228546875,1184.3110281445313,1611.59977546875,1184.5535381445313,1611.59977546875,1184.8526881445312L1611.59977546875,1227.1026481445313C1611.59977546875,1227.4018481445312,1611.84228546875,1227.6443481445312,1612.14143546875,1227.6443481445312L1645.72480546875,1227.6443481445312C1646.02390546875,1227.6443481445312,1646.26640546875,1227.4018481445312,1646.26640546875,1227.1026481445313L1646.26640546875,1195.1443481445312L1638.14140546875,1195.1443481445312C1636.64640546875,1195.1426481445312,1635.43480546875,1193.9311481445313,1635.43310546875,1192.4360481445312L1635.43310546875,1184.3110281445313L1612.14143546875,1184.3110281445313ZM1637.59980546875,1185.8429281445312L1637.59980546875,1192.4360481445312C1637.59980546875,1192.7351481445312,1637.84230546875,1192.9776481445313,1638.14140546875,1192.9776481445313L1644.73450546875,1192.9776481445313L1637.59980546875,1185.8429281445312ZM1638.68310546875,1218.9776481445313L1619.18310546875,1218.9776481445313C1618.58479546875,1218.9776481445313,1618.09977546875,1218.4926481445314,1618.09977546875,1217.8943481445312C1618.09977546875,1217.2960481445311,1618.58479546875,1216.8110481445312,1619.18310546875,1216.8110481445312L1638.68310546875,1216.8110481445312C1639.28140546875,1216.8110481445312,1639.76640546875,1217.2960481445311,1639.76640546875,1217.8943481445312C1639.76640546875,1218.4926481445314,1639.28140546875,1218.9776481445313,1638.68310546875,1218.9776481445313ZM1638.68310546875,1208.1443481445312L1619.18310546875,1208.1443481445312C1618.58479546875,1208.1443481445312,1618.09977546875,1207.6593481445314,1618.09977546875,1207.0610481445312C1618.09977546875,1206.4627481445314,1618.58479546875,1205.9776481445313,1619.18310546875,1205.9776481445313L1638.68310546875,1205.9776481445313C1639.28140546875,1205.9776481445313,1639.76640546875,1206.4627481445314,1639.76640546875,1207.0610481445312C1639.76640546875,1207.6593481445314,1639.28140546875,1208.1443481445312,1638.68310546875,1208.1443481445312ZM1627.84980546875,1195.1443481445312L1619.18310546875,1195.1443481445312C1618.58479546875,1195.1443481445312,1618.09977546875,1194.6593481445314,1618.09977546875,1194.0610481445312C1618.09977546875,1193.4627481445314,1618.58479546875,1192.9776481445313,1619.18310546875,1192.9776481445313L1627.84980546875,1192.9776481445313C1628.44810546875,1192.9776481445313,1628.93310546875,1193.4627481445314,1628.93310546875,1194.0610481445312C1628.93310546875,1194.6593481445314,1628.44810546875,1195.1443481445312,1627.84980546875,1195.1443481445312Z" fill="#FFFFFF" fill-opacity="1" style="mix-blend-mode:passthrough"/></g></g><g clip-path="url(#master_svg8_179_3056)"><g><path d="M1542.72480546875,1229.8110481445312L1509.14143546875,1229.8110481445312C1507.64636546875,1229.8093481445312,1506.43478226875,1228.5977481445314,1506.43310546875,1227.1026481445313L1506.43310546875,1184.8526881445312C1506.43478458875,1183.3576181445312,1507.64636546875,1182.1460375345312,1509.14143546875,1182.1443584114313L1532.84340546875,1182.1443584114313C1533.56210546875,1182.1423832945313,1534.25170546875,1182.4280051445312,1534.75850546875,1182.9375611445312L1544.63990546875,1192.8189481445313C1545.14950546875,1193.3257481445312,1545.43510546875,1194.0153481445313,1545.43310546875,1194.7340481445312L1545.43310546875,1227.1026481445313C1545.43140546875,1228.5977481445314,1544.21980546875,1229.8093481445312,1542.72480546875,1229.8110481445312ZM1509.14143546875,1184.3110281445313C1508.84228546875,1184.3110281445313,1508.59977546875,1184.5535381445313,1508.59977546875,1184.8526881445312L1508.59977546875,1227.1026481445313C1508.59977546875,1227.4018481445312,1508.84228546875,1227.6443481445312,1509.14143546875,1227.6443481445312L1542.72480546875,1227.6443481445312C1543.02390546875,1227.6443481445312,1543.26640546875,1227.4018481445312,1543.26640546875,1227.1026481445313L1543.26640546875,1195.1443481445312L1535.14140546875,1195.1443481445312C1533.64640546875,1195.1426481445312,1532.43480546875,1193.9311481445313,1532.43310546875,1192.4360481445312L1532.43310546875,1184.3110281445313L1509.14143546875,1184.3110281445313ZM1534.59980546875,1185.8429281445312L1534.59980546875,1192.4360481445312C1534.59980546875,1192.7351481445312,1534.84230546875,1192.9776481445313,1535.14140546875,1192.9776481445313L1541.73450546875,1192.9776481445313L1534.59980546875,1185.8429281445312ZM1535.68310546875,1218.9776481445313L1516.18310546875,1218.9776481445313C1515.58479546875,1218.9776481445313,1515.09977546875,1218.4926481445314,1515.09977546875,1217.8943481445312C1515.09977546875,1217.2960481445311,1515.58479546875,1216.8110481445312,1516.18310546875,1216.8110481445312L1535.68310546875,1216.8110481445312C1536.28140546875,1216.8110481445312,1536.76640546875,1217.2960481445311,1536.76640546875,1217.8943481445312C1536.76640546875,1218.4926481445314,1536.28140546875,1218.9776481445313,1535.68310546875,1218.9776481445313ZM1535.68310546875,1208.1443481445312L1516.18310546875,1208.1443481445312C1515.58479546875,1208.1443481445312,1515.09977546875,1207.6593481445314,1515.09977546875,1207.0610481445312C1515.09977546875,1206.4627481445314,1515.58479546875,1205.9776481445313,1516.18310546875,1205.9776481445313L1535.68310546875,1205.9776481445313C1536.28140546875,1205.9776481445313,1536.76640546875,1206.4627481445314,1536.76640546875,1207.0610481445312C1536.76640546875,1207.6593481445314,1536.28140546875,1208.1443481445312,1535.68310546875,1208.1443481445312ZM1524.84980546875,1195.1443481445312L1516.18310546875,1195.1443481445312C1515.58479546875,1195.1443481445312,1515.09977546875,1194.6593481445314,1515.09977546875,1194.0610481445312C1515.09977546875,1193.4627481445314,1515.58479546875,1192.9776481445313,1516.18310546875,1192.9776481445313L1524.84980546875,1192.9776481445313C1525.44810546875,1192.9776481445313,1525.93310546875,1193.4627481445314,1525.93310546875,1194.0610481445312C1525.93310546875,1194.6593481445314,1525.44810546875,1195.1443481445312,1524.84980546875,1195.1443481445312Z" fill="#FFFFFF" fill-opacity="1" style="mix-blend-mode:passthrough"/></g></g><g clip-path="url(#master_svg9_179_3027)"><g><path d="M1439.72480546875,1227.8110481445312L1406.14143546875,1227.8110481445312C1404.64636546875,1227.8093481445312,1403.43478226875,1226.5977481445314,1403.43310546875,1225.1026481445313L1403.43310546875,1182.8526881445312C1403.43478458875,1181.3576181445312,1404.64636546875,1180.1460375345312,1406.14143546875,1180.1443584114313L1429.84340546875,1180.1443584114313C1430.56210546875,1180.1423832945313,1431.25170546875,1180.4280051445312,1431.75850546875,1180.9375611445312L1441.63990546875,1190.8189481445313C1442.14950546875,1191.3257481445312,1442.43510546875,1192.0153481445313,1442.43310546875,1192.7340481445312L1442.43310546875,1225.1026481445313C1442.43140546875,1226.5977481445314,1441.21980546875,1227.8093481445312,1439.72480546875,1227.8110481445312ZM1406.14143546875,1182.3110281445313C1405.84228546875,1182.3110281445313,1405.59977546875,1182.5535381445313,1405.59977546875,1182.8526881445312L1405.59977546875,1225.1026481445313C1405.59977546875,1225.4018481445312,1405.84228546875,1225.6443481445312,1406.14143546875,1225.6443481445312L1439.72480546875,1225.6443481445312C1440.02390546875,1225.6443481445312,1440.26640546875,1225.4018481445312,1440.26640546875,1225.1026481445313L1440.26640546875,1193.1443481445312L1432.14140546875,1193.1443481445312C1430.64640546875,1193.1426481445312,1429.43480546875,1191.9311481445313,1429.43310546875,1190.4360481445312L1429.43310546875,1182.3110281445313L1406.14143546875,1182.3110281445313ZM1431.59980546875,1183.8429281445312L1431.59980546875,1190.4360481445312C1431.59980546875,1190.7351481445312,1431.84230546875,1190.9776481445313,1432.14140546875,1190.9776481445313L1438.73450546875,1190.9776481445313L1431.59980546875,1183.8429281445312ZM1432.68310546875,1216.9776481445313L1413.18310546875,1216.9776481445313C1412.58479546875,1216.9776481445313,1412.09977546875,1216.4926481445314,1412.09977546875,1215.8943481445312C1412.09977546875,1215.2960481445311,1412.58479546875,1214.8110481445312,1413.18310546875,1214.8110481445312L1432.68310546875,1214.8110481445312C1433.28140546875,1214.8110481445312,1433.76640546875,1215.2960481445311,1433.76640546875,1215.8943481445312C1433.76640546875,1216.4926481445314,1433.28140546875,1216.9776481445313,1432.68310546875,1216.9776481445313ZM1432.68310546875,1206.1443481445312L1413.18310546875,1206.1443481445312C1412.58479546875,1206.1443481445312,1412.09977546875,1205.6593481445314,1412.09977546875,1205.0610481445312C1412.09977546875,1204.4627481445314,1412.58479546875,1203.9776481445313,1413.18310546875,1203.9776481445313L1432.68310546875,1203.9776481445313C1433.28140546875,1203.9776481445313,1433.76640546875,1204.4627481445314,1433.76640546875,1205.0610481445312C1433.76640546875,1205.6593481445314,1433.28140546875,1206.1443481445312,1432.68310546875,1206.1443481445312ZM1421.84980546875,1193.1443481445312L1413.18310546875,1193.1443481445312C1412.58479546875,1193.1443481445312,1412.09977546875,1192.6593481445314,1412.09977546875,1192.0610481445312C1412.09977546875,1191.4627481445314,1412.58479546875,1190.9776481445313,1413.18310546875,1190.9776481445313L1421.84980546875,1190.9776481445313C1422.44810546875,1190.9776481445313,1422.93310546875,1191.4627481445314,1422.93310546875,1192.0610481445312C1422.93310546875,1192.6593481445314,1422.44810546875,1193.1443481445312,1421.84980546875,1193.1443481445312Z" fill="#FFFFFF" fill-opacity="1" style="mix-blend-mode:passthrough"/></g></g><g clip-path="url(#master_svga_179_3022)"><g><path d="M1327.72480546875,1227.8110481445312L1294.14143546875,1227.8110481445312C1292.64636546875,1227.8093481445312,1291.43478226875,1226.5977481445314,1291.43310546875,1225.1026481445313L1291.43310546875,1182.8526881445312C1291.43478458875,1181.3576181445312,1292.64636546875,1180.1460375345312,1294.14143546875,1180.1443584114313L1317.84340546875,1180.1443584114313C1318.56210546875,1180.1423832945313,1319.25170546875,1180.4280051445312,1319.75850546875,1180.9375611445312L1329.63990546875,1190.8189481445313C1330.14950546875,1191.3257481445312,1330.43510546875,1192.0153481445313,1330.43310546875,1192.7340481445312L1330.43310546875,1225.1026481445313C1330.43140546875,1226.5977481445314,1329.21980546875,1227.8093481445312,1327.72480546875,1227.8110481445312ZM1294.14143546875,1182.3110281445313C1293.84228546875,1182.3110281445313,1293.59977546875,1182.5535381445313,1293.59977546875,1182.8526881445312L1293.59977546875,1225.1026481445313C1293.59977546875,1225.4018481445312,1293.84228546875,1225.6443481445312,1294.14143546875,1225.6443481445312L1327.72480546875,1225.6443481445312C1328.02390546875,1225.6443481445312,1328.26640546875,1225.4018481445312,1328.26640546875,1225.1026481445313L1328.26640546875,1193.1443481445312L1320.14140546875,1193.1443481445312C1318.64640546875,1193.1426481445312,1317.43480546875,1191.9311481445313,1317.43310546875,1190.4360481445312L1317.43310546875,1182.3110281445313L1294.14143546875,1182.3110281445313ZM1319.59980546875,1183.8429281445312L1319.59980546875,1190.4360481445312C1319.59980546875,1190.7351481445312,1319.84230546875,1190.9776481445313,1320.14140546875,1190.9776481445313L1326.73450546875,1190.9776481445313L1319.59980546875,1183.8429281445312ZM1320.68310546875,1216.9776481445313L1301.18310546875,1216.9776481445313C1300.58479546875,1216.9776481445313,1300.09977546875,1216.4926481445314,1300.09977546875,1215.8943481445312C1300.09977546875,1215.2960481445311,1300.58479546875,1214.8110481445312,1301.18310546875,1214.8110481445312L1320.68310546875,1214.8110481445312C1321.28140546875,1214.8110481445312,1321.76640546875,1215.2960481445311,1321.76640546875,1215.8943481445312C1321.76640546875,1216.4926481445314,1321.28140546875,1216.9776481445313,1320.68310546875,1216.9776481445313ZM1320.68310546875,1206.1443481445312L1301.18310546875,1206.1443481445312C1300.58479546875,1206.1443481445312,1300.09977546875,1205.6593481445314,1300.09977546875,1205.0610481445312C1300.09977546875,1204.4627481445314,1300.58479546875,1203.9776481445313,1301.18310546875,1203.9776481445313L1320.68310546875,1203.9776481445313C1321.28140546875,1203.9776481445313,1321.76640546875,1204.4627481445314,1321.76640546875,1205.0610481445312C1321.76640546875,1205.6593481445314,1321.28140546875,1206.1443481445312,1320.68310546875,1206.1443481445312ZM1309.84980546875,1193.1443481445312L1301.18310546875,1193.1443481445312C1300.58479546875,1193.1443481445312,1300.09977546875,1192.6593481445314,1300.09977546875,1192.0610481445312C1300.09977546875,1191.4627481445314,1300.58479546875,1190.9776481445313,1301.18310546875,1190.9776481445313L1309.84980546875,1190.9776481445313C1310.44810546875,1190.9776481445313,1310.93310546875,1191.4627481445314,1310.93310546875,1192.0610481445312C1310.93310546875,1192.6593481445314,1310.44810546875,1193.1443481445312,1309.84980546875,1193.1443481445312Z" fill="#FFFFFF" fill-opacity="1" style="mix-blend-mode:passthrough"/></g></g><g clip-path="url(#master_svgb_179_3012)"><g><path d="M1954.72480546875,1229.8110481445312L1921.14143546875,1229.8110481445312C1919.64636546875,1229.8093481445312,1918.43478226875,1228.5977481445314,1918.43310546875,1227.1026481445313L1918.43310546875,1184.8526881445312C1918.43478458875,1183.3576181445312,1919.64636546875,1182.1460375345312,1921.14143546875,1182.1443584114313L1944.84340546875,1182.1443584114313C1945.56210546875,1182.1423832945313,1946.25170546875,1182.4280051445312,1946.75850546875,1182.9375611445312L1956.63990546875,1192.8189481445313C1957.14950546875,1193.3257481445312,1957.43510546875,1194.0153481445313,1957.43310546875,1194.7340481445312L1957.43310546875,1227.1026481445313C1957.43140546875,1228.5977481445314,1956.21980546875,1229.8093481445312,1954.72480546875,1229.8110481445312ZM1921.14143546875,1184.3110281445313C1920.84228546875,1184.3110281445313,1920.59977546875,1184.5535381445313,1920.59977546875,1184.8526881445312L1920.59977546875,1227.1026481445313C1920.59977546875,1227.4018481445312,1920.84228546875,1227.6443481445312,1921.14143546875,1227.6443481445312L1954.72480546875,1227.6443481445312C1955.02390546875,1227.6443481445312,1955.26640546875,1227.4018481445312,1955.26640546875,1227.1026481445313L1955.26640546875,1195.1443481445312L1947.14140546875,1195.1443481445312C1945.64640546875,1195.1426481445312,1944.43480546875,1193.9311481445313,1944.43310546875,1192.4360481445312L1944.43310546875,1184.3110281445313L1921.14143546875,1184.3110281445313ZM1946.59980546875,1185.8429281445312L1946.59980546875,1192.4360481445312C1946.59980546875,1192.7351481445312,1946.84230546875,1192.9776481445313,1947.14140546875,1192.9776481445313L1953.73450546875,1192.9776481445313L1946.59980546875,1185.8429281445312ZM1947.68310546875,1218.9776481445313L1928.18310546875,1218.9776481445313C1927.58479546875,1218.9776481445313,1927.09977546875,1218.4926481445314,1927.09977546875,1217.8943481445312C1927.09977546875,1217.2960481445311,1927.58479546875,1216.8110481445312,1928.18310546875,1216.8110481445312L1947.68310546875,1216.8110481445312C1948.28140546875,1216.8110481445312,1948.76640546875,1217.2960481445311,1948.76640546875,1217.8943481445312C1948.76640546875,1218.4926481445314,1948.28140546875,1218.9776481445313,1947.68310546875,1218.9776481445313ZM1947.68310546875,1208.1443481445312L1928.18310546875,1208.1443481445312C1927.58479546875,1208.1443481445312,1927.09977546875,1207.6593481445314,1927.09977546875,1207.0610481445312C1927.09977546875,1206.4627481445314,1927.58479546875,1205.9776481445313,1928.18310546875,1205.9776481445313L1947.68310546875,1205.9776481445313C1948.28140546875,1205.9776481445313,1948.76640546875,1206.4627481445314,1948.76640546875,1207.0610481445312C1948.76640546875,1207.6593481445314,1948.28140546875,1208.1443481445312,1947.68310546875,1208.1443481445312ZM1936.84980546875,1195.1443481445312L1928.18310546875,1195.1443481445312C1927.58479546875,1195.1443481445312,1927.09977546875,1194.6593481445314,1927.09977546875,1194.0610481445312C1927.09977546875,1193.4627481445314,1927.58479546875,1192.9776481445313,1928.18310546875,1192.9776481445313L1936.84980546875,1192.9776481445313C1937.44810546875,1192.9776481445313,1937.93310546875,1193.4627481445314,1937.93310546875,1194.0610481445312C1937.93310546875,1194.6593481445314,1937.44810546875,1195.1443481445312,1936.84980546875,1195.1443481445312Z" fill="#FFFFFF" fill-opacity="1" style="mix-blend-mode:passthrough"/></g></g><g clip-path="url(#master_svgc_179_3010)"><g><path d="M1900.72480546875,1347.8110481445312L1867.14143546875,1347.8110481445312C1865.64636546875,1347.8093481445312,1864.43478226875,1346.5977481445314,1864.43310546875,1345.1026481445313L1864.43310546875,1302.8526881445312C1864.43478458875,1301.3576181445312,1865.64636546875,1300.1460375345312,1867.14143546875,1300.1443584114313L1890.84340546875,1300.1443584114313C1891.56210546875,1300.1423832945313,1892.25170546875,1300.4280051445312,1892.75850546875,1300.9375611445312L1902.63990546875,1310.8189481445313C1903.14950546875,1311.3257481445312,1903.43510546875,1312.0153481445313,1903.43310546875,1312.7340481445312L1903.43310546875,1345.1026481445313C1903.43140546875,1346.5977481445314,1902.21980546875,1347.8093481445312,1900.72480546875,1347.8110481445312ZM1867.14143546875,1302.3110281445313C1866.84228546875,1302.3110281445313,1866.59977546875,1302.5535381445313,1866.59977546875,1302.8526881445312L1866.59977546875,1345.1026481445313C1866.59977546875,1345.4018481445312,1866.84228546875,1345.6443481445312,1867.14143546875,1345.6443481445312L1900.72480546875,1345.6443481445312C1901.02390546875,1345.6443481445312,1901.26640546875,1345.4018481445312,1901.26640546875,1345.1026481445313L1901.26640546875,1313.1443481445312L1893.14140546875,1313.1443481445312C1891.64640546875,1313.1426481445312,1890.43480546875,1311.9311481445313,1890.43310546875,1310.4360481445312L1890.43310546875,1302.3110281445313L1867.14143546875,1302.3110281445313ZM1892.59980546875,1303.8429281445312L1892.59980546875,1310.4360481445312C1892.59980546875,1310.7351481445312,1892.84230546875,1310.9776481445313,1893.14140546875,1310.9776481445313L1899.73450546875,1310.9776481445313L1892.59980546875,1303.8429281445312ZM1893.68310546875,1336.9776481445313L1874.18310546875,1336.9776481445313C1873.58479546875,1336.9776481445313,1873.09977546875,1336.4926481445314,1873.09977546875,1335.8943481445312C1873.09977546875,1335.2960481445311,1873.58479546875,1334.8110481445312,1874.18310546875,1334.8110481445312L1893.68310546875,1334.8110481445312C1894.28140546875,1334.8110481445312,1894.76640546875,1335.2960481445311,1894.76640546875,1335.8943481445312C1894.76640546875,1336.4926481445314,1894.28140546875,1336.9776481445313,1893.68310546875,1336.9776481445313ZM1893.68310546875,1326.1443481445312L1874.18310546875,1326.1443481445312C1873.58479546875,1326.1443481445312,1873.09977546875,1325.6593481445314,1873.09977546875,1325.0610481445312C1873.09977546875,1324.4627481445314,1873.58479546875,1323.9776481445313,1874.18310546875,1323.9776481445313L1893.68310546875,1323.9776481445313C1894.28140546875,1323.9776481445313,1894.76640546875,1324.4627481445314,1894.76640546875,1325.0610481445312C1894.76640546875,1325.6593481445314,1894.28140546875,1326.1443481445312,1893.68310546875,1326.1443481445312ZM1882.84980546875,1313.1443481445312L1874.18310546875,1313.1443481445312C1873.58479546875,1313.1443481445312,1873.09977546875,1312.6593481445314,1873.09977546875,1312.0610481445312C1873.09977546875,1311.4627481445314,1873.58479546875,1310.9776481445313,1874.18310546875,1310.9776481445313L1882.84980546875,1310.9776481445313C1883.44810546875,1310.9776481445313,1883.93310546875,1311.4627481445314,1883.93310546875,1312.0610481445312C1883.93310546875,1312.6593481445314,1883.44810546875,1313.1443481445312,1882.84980546875,1313.1443481445312Z" fill="#FFFFFF" fill-opacity="1" style="mix-blend-mode:passthrough"/></g></g><g clip-path="url(#master_svgd_179_3054)"><g><path d="M2158.72480546875,1347.8110481445312L2125.14143546875,1347.8110481445312C2123.64636546875,1347.8093481445312,2122.43478226875,1346.5977481445314,2122.43310546875,1345.1026481445313L2122.43310546875,1302.8526881445312C2122.43478458875,1301.3576181445312,2123.64636546875,1300.1460375345312,2125.14143546875,1300.1443584114313L2148.84340546875,1300.1443584114313C2149.56210546875,1300.1423832945313,2150.25170546875,1300.4280051445312,2150.75850546875,1300.9375611445312L2160.63990546875,1310.8189481445313C2161.14950546875,1311.3257481445312,2161.43510546875,1312.0153481445313,2161.43310546875,1312.7340481445312L2161.43310546875,1345.1026481445313C2161.43140546875,1346.5977481445314,2160.21980546875,1347.8093481445312,2158.72480546875,1347.8110481445312ZM2125.14143546875,1302.3110281445313C2124.84228546875,1302.3110281445313,2124.59977546875,1302.5535381445313,2124.59977546875,1302.8526881445312L2124.59977546875,1345.1026481445313C2124.59977546875,1345.4018481445312,2124.84228546875,1345.6443481445312,2125.14143546875,1345.6443481445312L2158.72480546875,1345.6443481445312C2159.02390546875,1345.6443481445312,2159.26640546875,1345.4018481445312,2159.26640546875,1345.1026481445313L2159.26640546875,1313.1443481445312L2151.14140546875,1313.1443481445312C2149.64640546875,1313.1426481445312,2148.43480546875,1311.9311481445313,2148.43310546875,1310.4360481445312L2148.43310546875,1302.3110281445313L2125.14143546875,1302.3110281445313ZM2150.59980546875,1303.8429281445312L2150.59980546875,1310.4360481445312C2150.59980546875,1310.7351481445312,2150.84230546875,1310.9776481445313,2151.14140546875,1310.9776481445313L2157.73450546875,1310.9776481445313L2150.59980546875,1303.8429281445312ZM2151.68310546875,1336.9776481445313L2132.18310546875,1336.9776481445313C2131.58479546875,1336.9776481445313,2131.09977546875,1336.4926481445314,2131.09977546875,1335.8943481445312C2131.09977546875,1335.2960481445311,2131.58479546875,1334.8110481445312,2132.18310546875,1334.8110481445312L2151.68310546875,1334.8110481445312C2152.28140546875,1334.8110481445312,2152.76640546875,1335.2960481445311,2152.76640546875,1335.8943481445312C2152.76640546875,1336.4926481445314,2152.28140546875,1336.9776481445313,2151.68310546875,1336.9776481445313ZM2151.68310546875,1326.1443481445312L2132.18310546875,1326.1443481445312C2131.58479546875,1326.1443481445312,2131.09977546875,1325.6593481445314,2131.09977546875,1325.0610481445312C2131.09977546875,1324.4627481445314,2131.58479546875,1323.9776481445313,2132.18310546875,1323.9776481445313L2151.68310546875,1323.9776481445313C2152.28140546875,1323.9776481445313,2152.76640546875,1324.4627481445314,2152.76640546875,1325.0610481445312C2152.76640546875,1325.6593481445314,2152.28140546875,1326.1443481445312,2151.68310546875,1326.1443481445312ZM2140.84980546875,1313.1443481445312L2132.18310546875,1313.1443481445312C2131.58479546875,1313.1443481445312,2131.09977546875,1312.6593481445314,2131.09977546875,1312.0610481445312C2131.09977546875,1311.4627481445314,2131.58479546875,1310.9776481445313,2132.18310546875,1310.9776481445313L2140.84980546875,1310.9776481445313C2141.44810546875,1310.9776481445313,2141.93310546875,1311.4627481445314,2141.93310546875,1312.0610481445312C2141.93310546875,1312.6593481445314,2141.44810546875,1313.1443481445312,2140.84980546875,1313.1443481445312Z" fill="#FFFFFF" fill-opacity="1" style="mix-blend-mode:passthrough"/></g></g></g></svg>